<svg fill="#FFFFFF" xmlns="http://www.w3.org/2000/svg"  viewBox="0 0 100 100" width="100px" height="100px"><path d="M 48.568359 15.517578 A 2.0002 2.0002 0 0 0 48.427734 15.525391 C 36.143305 16.440373 28.10251 21.582779 23.246094 26.517578 C 18.389677 31.452377 16.589844 36.3125 16.589844 36.3125 A 2.0002 2.0002 0 1 0 20.34375 37.691406 C 20.34375 37.691406 21.251662 35.244005 23.683594 32.097656 L 25.292969 33.707031 A 1.0001 1.0001 0 0 0 26.019531 34.013672 C 24.003153 36.439082 22.020143 39.487891 21.046875 42.929688 C 18.747084 51.066085 19.249171 54.666141 20.136719 60.185547 C 21.016528 65.663004 21.229016 69.148225 20.181641 72.089844 A 1.0001418 1.0001418 0 1 0 22.066406 72.759766 C 23.307032 69.275385 23.003521 65.423684 22.111328 59.869141 C 21.224876 54.356546 20.730494 51.398259 22.970703 43.472656 C 25.103235 35.931326 33.228516 29.837891 33.228516 29.837891 A 1.0001 1.0001 0 0 0 32.669922 28.023438 A 1.0001 1.0001 0 0 0 32.044922 28.226562 C 32.044922 28.226562 29.631832 29.974909 27.005859 32.875 A 1.0001 1.0001 0 0 0 26.707031 32.292969 L 24.966797 30.552734 C 25.326023 30.146204 25.685996 29.738585 26.095703 29.322266 C 26.765625 28.641531 27.510495 27.956166 28.318359 27.279297 L 29.167969 28.554688 A 1.0001 1.0001 0 1 0 30.832031 27.445312 L 29.894531 26.037109 C 30.751777 25.408543 31.685466 24.800026 32.685547 24.21875 L 33.050781 25.316406 A 1.0005646 1.0005646 0 1 0 34.949219 24.683594 L 34.472656 23.251953 C 38.231575 21.37518 42.905774 19.947071 48.724609 19.513672 A 2.0002 2.0002 0 0 0 48.568359 15.517578 z M 55.611328 16.400391 A 2.0002 2.0002 0 0 0 55.3125 20.375 C 55.3125 20.375 56.520265 20.605838 58.369141 21.216797 L 58.292969 21.292969 A 1.0001 1.0001 0 1 0 59.707031 22.707031 L 60.435547 21.978516 C 61.127064 22.256376 61.856983 22.580676 62.632812 22.953125 L 62.292969 23.292969 A 1.0001 1.0001 0 1 0 63.707031 24.707031 L 64.492188 23.921875 C 65.161937 24.291575 65.83272 24.667954 66.527344 25.113281 L 66.445312 25.167969 A 1.0001 1.0001 0 1 0 67.554688 26.832031 L 68.304688 26.332031 C 74.697971 30.99908 81.167151 38.94212 82.003906 53.060547 A 2.0002 2.0002 0 1 0 85.996094 52.824219 C 85.076972 37.316056 77.567629 28.024155 70.330078 22.853516 C 63.092527 17.682876 56.007812 16.435547 56.007812 16.435547 A 2.0002 2.0002 0 0 0 55.611328 16.400391 z M 50.751953 22.701172 C 44.006302 22.49886 38.494141 24.550781 38.494141 24.550781 A 1.0001 1.0001 0 1 0 39.175781 26.429688 C 39.175781 26.429688 52.569091 21.678873 62.191406 28.09375 C 72.669101 35.079209 76.812787 41.652719 77.689453 57.425781 A 1.0001 1.0001 0 1 0 79.685547 57.316406 C 78.790213 41.207468 74.077086 33.614228 63.300781 26.429688 C 59.29065 23.756266 54.799344 22.822559 50.751953 22.701172 z M 48.259766 28.271484 C 45.012265 28.335384 41.282925 28.899916 38.289062 30.851562 C 32.622633 34.546 26.812177 40.082287 25.662109 48.632812 A 1.0001 1.0001 0 0 0 25.617188 49.310547 C 25.523238 50.209835 25.423489 51.106355 25.4375 52.072266 C 25.51137 57.164446 25.736808 59.301224 25.947266 60.667969 C 26.157723 62.034713 26.322266 62.460528 26.322266 64.455078 C 26.322266 70.623536 26.06856 72.004679 24.585938 77.478516 A 1.0003973 1.0003973 0 1 0 26.517578 78 C 28.008956 72.493837 28.322266 70.684621 28.322266 64.455078 C 28.322266 62.340628 28.11962 61.634787 27.923828 60.363281 C 27.772598 59.38117 27.610342 57.91927 27.509766 55 L 30 55 A 1.0001 1.0001 0 1 0 30 53 L 27.460938 53 C 27.454051 52.660626 27.442887 52.414358 27.4375 52.042969 C 27.4289 51.448102 27.50926 50.911686 27.544922 50.345703 L 29.728516 50.962891 A 1.0004312 1.0004312 0 1 0 30.271484 49.037109 L 27.71875 48.316406 C 28.929396 40.801277 34.074002 35.987344 39.380859 32.527344 C 42.227303 30.671797 46.25757 30.20552 49.578125 30.271484 C 52.89868 30.337444 55.447266 30.894531 55.447266 30.894531 A 1.0001 1.0001 0 1 0 55.875 28.941406 C 55.875 28.941406 53.144586 28.34152 49.619141 28.271484 C 49.17846 28.262729 48.723694 28.262356 48.259766 28.271484 z M 61.003906 31.875 A 1.0001 1.0001 0 0 0 60.447266 33.679688 C 66.803843 38.507841 69.432097 41.851415 71.451172 52.332031 C 73.439274 62.651879 71.496094 77.607422 71.496094 77.607422 A 1.0001 1.0001 0 1 0 73.478516 77.871094 C 73.478516 77.871094 75.513956 62.853278 73.414062 51.953125 C 71.345135 41.213741 68.175673 37.037782 61.65625 32.085938 A 1.0001 1.0001 0 0 0 61.003906 31.875 z M 56.876953 32.007812 C 56.748047 32.023781 56.6195 32.065766 56.5 32.134766 C 56.022 32.410766 55.858766 33.022 56.134766 33.5 C 56.410766 33.977 57.022 34.141234 57.5 33.865234 C 57.977 33.589234 58.141234 32.978 57.865234 32.5 C 57.658234 32.1415 57.263672 31.959906 56.876953 32.007812 z M 48.498047 34.103516 C 46.048122 34.054056 43.008104 34.713957 39.201172 37.035156 C 35.257274 39.439867 33.118723 43.256176 32.099609 46.867188 C 31.080496 50.478198 31.114843 53.855782 31.671875 55.867188 C 32.086442 57.362589 32.33598 60.48029 32.4375 63.125 C 32.53902 65.76971 32.521484 67.990234 32.521484 67.990234 A 1.0001 1.0001 0 1 0 34.521484 68.005859 C 34.521484 68.005859 34.539027 65.744618 34.435547 63.048828 C 34.332092 60.353713 34.136736 57.272668 33.599609 55.333984 L 33.599609 55.332031 C 33.231882 54.002606 33.129782 51.090558 33.867188 48.052734 L 35.552734 48.894531 A 1.0001163 1.0001163 0 1 0 36.447266 47.105469 L 34.447266 46.105469 C 35.476213 43.282551 37.281998 40.547102 40.242188 38.742188 C 43.794255 36.576386 46.387206 36.059775 48.457031 36.101562 C 50.526856 36.143352 52.096619 36.778308 53.693359 37.097656 C 57.618722 37.883083 62.039062 42.136719 62.039062 42.136719 A 1.0001 1.0001 0 1 0 63.453125 40.722656 C 63.453125 40.722656 59.016573 36.123292 54.085938 35.136719 C 52.782677 34.876067 50.947972 34.152978 48.498047 34.103516 z M 48.853516 39.644531 C 48.580133 39.652991 48.315379 39.671132 48.060547 39.695312 C 46.021885 39.888753 44.623047 40.517578 44.623047 40.517578 A 1.0001 1.0001 0 1 0 45.443359 42.341797 C 45.443359 42.341797 50.020629 40.285323 54.212891 43.142578 C 56.434716 44.656873 57.756877 46.128034 58.755859 48.734375 C 59.754841 51.340716 60.367434 55.125961 60.863281 60.998047 C 61.834306 72.485907 57.367188 86.283203 57.367188 86.283203 A 1.0001 1.0001 0 1 0 59.267578 86.90625 C 59.267578 86.90625 63.882397 72.954264 62.857422 60.828125 C 62.356269 54.89321 61.754518 50.96644 60.625 48.019531 C 59.495482 45.072622 57.775018 43.149939 55.339844 41.490234 C 53.099083 39.963034 50.767195 39.585314 48.853516 39.644531 z M 15.769531 40.289062 A 2.0002 2.0002 0 0 0 13.894531 41.742188 C 13.894531 41.742188 9.6639563 54.984588 14.912109 65.357422 A 2.0002 2.0002 0 1 0 18.480469 63.552734 C 14.292622 55.275568 17.726562 42.888672 17.726562 42.888672 A 2.0002 2.0002 0 0 0 15.769531 40.289062 z M 40.564453 43.962891 A 1.0001 1.0001 0 0 0 39.818359 44.357422 C 39.818359 44.357422 35.505473 49.612513 36.986328 54.980469 C 38.212727 59.426994 37.835938 64.728276 37.835938 68.882812 C 37.835938 75.634526 34.378906 83.53125 34.378906 83.53125 A 1.0002746 1.0002746 0 1 0 36.207031 84.34375 C 36.207031 84.34375 39.835938 76.301099 39.835938 68.882812 C 39.835938 64.86135 40.273664 59.37674 38.914062 54.447266 C 37.808917 50.441221 41.394531 45.587891 41.394531 45.587891 A 1.0001 1.0001 0 0 0 40.564453 43.962891 z M 43.876953 44.007812 C 43.748047 44.023781 43.6195 44.065766 43.5 44.134766 C 43.022 44.410766 42.858766 45.022 43.134766 45.5 C 43.410766 45.977 44.022 46.141234 44.5 45.865234 C 44.977 45.589234 45.141234 44.978 44.865234 44.5 C 44.658234 44.1415 44.263672 43.959906 43.876953 44.007812 z M 49.462891 45.744141 C 47.624771 45.744141 45.794899 46.754006 44.396484 48.234375 C 42.998069 49.714744 42.011688 51.75304 42.269531 53.945312 C 42.715579 57.728921 44.239708 64.273551 43.412109 69.236328 C 41.660775 79.745326 38.830078 85.253906 38.830078 85.253906 A 1.0005993 1.0005993 0 0 0 40.611328 86.166016 C 40.611328 86.166016 43.5941 80.309456 45.384766 69.564453 C 46.321167 63.94923 44.667812 57.207282 44.255859 53.712891 C 44.085703 52.266164 44.761024 50.761756 45.849609 49.609375 C 46.938194 48.456994 48.42301 47.744141 49.462891 47.744141 C 50.569085 47.744141 51.311799 48.030971 52.150391 48.962891 C 52.988982 49.894811 53.848467 51.551259 54.712891 54.144531 C 55.028591 55.091263 55.309778 58.052792 55.423828 60.587891 C 55.537878 63.122989 55.546875 65.345703 55.546875 65.345703 A 1.0001 1.0001 0 1 0 57.546875 65.337891 C 57.546875 65.337891 57.538075 63.078995 57.421875 60.496094 C 57.30571 57.913974 57.144286 55.119175 56.609375 53.513672 L 56.609375 53.511719 C 55.703016 50.793086 54.790349 48.90702 53.636719 47.625 C 52.48281 46.34267 51.013696 45.744141 49.462891 45.744141 z M 66.259766 46.615234 A 1.0001 1.0001 0 0 0 65.310547 47.837891 C 65.954826 50.860426 66.399732 53.700545 66.707031 56.376953 L 64.683594 57.050781 A 1.0005646 1.0005646 0 1 0 65.316406 58.949219 L 66.910156 58.417969 C 66.966103 59.039909 67.020163 59.656863 67.060547 60.257812 L 64.683594 61.050781 A 1.0005646 1.0005646 0 1 0 65.316406 62.949219 L 67.173828 62.330078 C 67.36534 67.023734 67.111511 71.025706 66.683594 74.228516 C 65.866675 80.342865 64.484375 83.542969 64.484375 83.542969 A 1.0001 1.0001 0 1 0 66.322266 84.332031 C 66.322266 84.332031 67.821434 80.815541 68.666016 74.494141 C 69.245238 70.158862 69.506836 64.441915 68.833984 57.568359 A 1.0001 1.0001 0 0 0 68.705078 56.273438 C 68.390507 53.497198 67.933501 50.553159 67.265625 47.419922 A 1.0001 1.0001 0 0 0 66.259766 46.615234 z M 49.470703 51.044922 A 1.0001 1.0001 0 0 0 48.476562 52.232422 C 50.688995 64.76692 48.478516 76.669922 48.478516 76.669922 A 1.000389 1.000389 0 1 0 50.445312 77.037109 C 50.445312 77.037109 52.736787 64.856268 50.447266 51.884766 A 1.0001 1.0001 0 0 0 49.470703 51.044922 z M 79.541016 62.425781 A 2.0002 2.0002 0 0 0 77.572266 64.455078 L 77.572266 69.769531 A 2.0002 2.0002 0 1 0 81.572266 69.769531 L 81.572266 64.455078 A 2.0002 2.0002 0 0 0 79.541016 62.425781 z M 53.876953 67.007812 C 53.748047 67.023781 53.6195 67.065766 53.5 67.134766 C 53.022 67.410766 52.858766 68.022 53.134766 68.5 C 53.410766 68.977 54.022 69.141234 54.5 68.865234 C 54.977 68.589234 55.141234 67.978 54.865234 67.5 C 54.658234 67.1415 54.263672 66.959906 53.876953 67.007812 z M 55.685547 70.525391 A 1.0001 1.0001 0 0 0 54.662109 71.5 C 54.662109 71.5 54.237553 80.834955 51.21875 87.042969 A 1.0001759 1.0001759 0 1 0 53.017578 87.917969 C 56.340775 81.083983 56.660156 71.580078 56.660156 71.580078 A 1.0001 1.0001 0 0 0 55.685547 70.525391 z M 31.818359 72.169922 A 2.0002 2.0002 0 0 0 29.810547 73.712891 L 28.039062 80.796875 A 2.0002 2.0002 0 1 0 31.919922 81.765625 L 33.691406 74.681641 A 2.0002 2.0002 0 0 0 31.818359 72.169922 z M 47.248047 81.240234 A 2.0002 2.0002 0 0 0 45.347656 82.664062 L 44.013672 86.875 A 2.0002 2.0002 0 1 0 47.826172 88.083984 L 49.162109 83.873047 A 2.0002 2.0002 0 0 0 47.248047 81.240234 z"/></svg>